<svg width="120" height="32" viewBox="0 0 120 32" fill="none" xmlns="http://www.w3.org/2000/svg">
<path d="M30.5661 15.9644C30.8043 15.8068 31.0755 15.6984 31.3456 15.5904C31.4365 15.5541 31.5275 15.5177 31.6169 15.4796C31.9879 15.3211 32.0131 15.2948 31.9962 14.9343C31.9733 14.463 31.9545 14.4397 31.5632 14.3236C31.4782 14.2985 31.3927 14.2744 31.3072 14.2502C31.0653 14.1817 30.8228 14.1131 30.5886 14.0232C29.6629 13.6672 29.4489 12.5353 30.177 11.8608C30.39 11.6633 30.6198 11.4797 30.8579 11.3129C31.2738 11.0222 31.2732 11.0204 31.1337 10.6032C31.1229 10.571 31.1113 10.5363 31.099 10.4987C31.0288 10.2869 30.9146 10.1709 30.678 10.1818C30.5608 10.1875 30.4431 10.1783 30.3255 10.1691C30.2731 10.165 30.2207 10.1609 30.1684 10.1581V10.1529C30.1044 10.1529 30.0402 10.1545 29.976 10.1561C29.8372 10.1596 29.6984 10.1631 29.5615 10.1502C28.5584 10.0548 28.0398 8.97816 28.596 8.13994C28.7112 7.96561 28.838 7.79919 28.9649 7.63275C29.0539 7.51599 29.143 7.39908 29.228 7.27957C29.2769 7.21085 29.3219 7.11884 29.32 7.03885C29.3092 6.68922 28.878 6.36324 28.5423 6.44436C28.412 6.47585 28.2825 6.51153 28.1532 6.54719C27.9385 6.60638 27.724 6.66553 27.5058 6.70536C26.5958 6.8706 25.8188 6.0767 26.0205 5.1739C26.0729 4.93966 26.1644 4.71436 26.2559 4.48899C26.3021 4.37508 26.3484 4.26115 26.3896 4.14603L26.3937 4.13476C26.4615 3.94555 26.5288 3.758 26.3104 3.60187C26.2741 3.57579 26.2388 3.54781 26.2038 3.52004C26.0142 3.36987 25.8322 3.22565 25.545 3.41898C25.2438 3.62215 24.9291 3.81706 24.5972 3.96127C23.6943 4.35258 22.7427 3.70665 22.7652 2.72573C22.7714 2.45481 22.8038 2.1839 22.8362 1.91381C22.8434 1.8533 22.8507 1.79283 22.8576 1.73241C22.8835 1.50784 22.8129 1.35837 22.5895 1.28138C22.546 1.26648 22.503 1.24836 22.4603 1.23036C22.2694 1.14993 22.0841 1.07185 21.8868 1.2934L21.8503 1.33422C21.6084 1.60458 21.3639 1.87791 21.0843 2.10495C20.323 2.72385 19.1934 2.32652 18.9688 1.37302C18.9282 1.20153 18.9002 1.02732 18.8722 0.853134C18.8525 0.730933 18.8328 0.608717 18.8088 0.487484C18.736 0.120953 18.7071 0.0987961 18.3379 0.0533553C18.3186 0.0509248 18.2993 0.0488865 18.28 0.0468545C18.2427 0.0429209 18.2057 0.0390108 18.1693 0.0323249C17.9853 -0.000722955 17.861 0.0627439 17.7757 0.23587C17.6375 0.519781 17.4877 0.79881 17.3371 1.07671C17.0716 1.56454 16.6502 1.80414 16.1045 1.79851C15.5615 1.7925 15.1679 1.52211 14.9223 1.03953C14.9015 0.998807 14.8806 0.958108 14.8597 0.917396C14.7473 0.698326 14.6347 0.478886 14.5381 0.252769C14.4438 0.0327004 14.291 -0.0288887 14.0724 0.0116701C14.0551 0.0149455 14.0377 0.0184531 14.0203 0.0219631C13.958 0.0345498 13.8956 0.0471689 13.8324 0.0492244C13.6349 0.054482 13.5452 0.164141 13.5102 0.346655C13.4558 0.633571 13.3961 0.91936 13.3356 1.20477C13.2695 1.51309 13.1448 1.79062 12.9003 2.00168C12.3393 2.48613 11.572 2.46322 11.0316 1.93408C10.8248 1.7312 10.6309 1.51368 10.4373 1.29658L10.3537 1.2029C10.2403 1.07596 10.1115 1.04967 9.96017 1.10638C9.91023 1.12509 9.86112 1.14603 9.81205 1.16696C9.75671 1.19056 9.70142 1.21414 9.64509 1.23444C9.48661 1.29152 9.41788 1.39517 9.43215 1.5683C9.4532 1.81696 9.46722 2.06632 9.48125 2.31564C9.48499 2.38224 9.48874 2.44884 9.49262 2.51542C9.52341 3.05808 9.31273 3.49071 8.85381 3.77087C8.39452 4.0514 7.91269 4.03262 7.44551 3.76298C7.30563 3.68261 7.16788 3.59889 7.03019 3.5152C6.96714 3.47688 6.90409 3.43856 6.84087 3.40058C6.81448 3.38469 6.78972 3.36969 6.76642 3.35557C6.57385 3.23888 6.48096 3.18259 6.39273 3.18913C6.31051 3.19522 6.23233 3.25586 6.08131 3.37301C6.04031 3.40481 5.99395 3.44078 5.94068 3.48094C5.80286 3.58497 5.7638 3.71003 5.81375 3.8625C5.82797 3.90575 5.84207 3.94907 5.85617 3.99239C5.9325 4.22699 6.00894 4.4619 6.10593 4.68757C6.50326 5.61516 5.78633 6.6449 4.787 6.54651C4.55571 6.5236 4.32838 6.45849 4.10141 6.39349C4.01588 6.369 3.93037 6.34451 3.84475 6.32231C3.29983 6.18111 3.28293 6.18749 2.95996 6.63852C2.86269 6.77409 2.84805 6.89877 2.94456 7.0396C3.02118 7.15081 3.09599 7.26333 3.1708 7.37585C3.2665 7.51979 3.3622 7.66373 3.46169 7.80496C3.77978 8.25523 3.84475 8.73518 3.59351 9.22677C3.34114 9.72098 2.90814 9.94105 2.35871 9.94143L2.24215 9.94137C1.98949 9.9412 1.73654 9.94103 1.48331 9.94819C1.15996 9.95758 0.811076 10.4293 0.895574 10.744C0.910596 10.7995 0.964299 10.8506 1.01124 10.8912C1.25234 11.0947 1.4942 11.2975 1.74056 11.4943C2.17544 11.8417 2.35082 12.3021 2.23703 12.8331C2.12174 13.3724 1.74018 13.6886 1.21329 13.8324C0.986832 13.8948 0.761503 13.959 0.538428 14.0322C0.0456103 14.1931 0.0449439 14.2013 0.00607648 14.6769L0.00252094 14.7202C-0.0170076 14.9621 0.0768793 15.0714 0.285684 15.1532C0.586873 15.2711 0.884683 15.4018 1.1716 15.5498C1.63465 15.7886 1.88477 16.1815 1.89866 16.7023C1.91256 17.2123 1.65756 17.5796 1.23357 17.841C1.14533 17.8955 1.05749 17.9505 0.969662 18.0056C0.789871 18.1184 0.610044 18.2311 0.42689 18.3386C0.236863 18.4501 0.145605 18.5977 0.195177 18.8208C0.219588 18.9312 0.240243 19.0427 0.258269 19.155C0.283431 19.3086 0.377318 19.3661 0.526035 19.3834C0.863652 19.4243 1.20014 19.4731 1.53476 19.5313C2.05639 19.6218 2.42706 19.9087 2.59718 20.4176C2.75942 20.9047 2.6584 21.3448 2.30576 21.7219C2.12362 21.9172 1.9381 22.1094 1.75182 22.3017L1.71014 22.3447C1.4084 22.6553 1.37111 22.6936 1.65268 23.2327C1.73192 23.384 1.84834 23.4377 2.01208 23.4137C2.07431 23.4048 2.13655 23.3957 2.19879 23.3865L2.19979 23.3864C2.42567 23.3533 2.65165 23.3201 2.87809 23.2969C3.44554 23.2398 3.95066 23.369 4.29015 23.8647C4.63115 24.3627 4.59097 24.8689 4.27513 25.3707C4.19562 25.4964 4.12627 25.6288 4.05683 25.7614C4.02821 25.816 3.99956 25.8707 3.97019 25.925C3.72385 26.3738 3.73039 26.3811 4.06185 26.7502L4.07421 26.7639C4.2402 26.9487 4.39681 26.9633 4.60937 26.8634C4.90943 26.7215 5.214 26.5855 5.52721 26.4789C6.02331 26.3106 6.49274 26.3805 6.88707 26.7433C7.28552 27.1083 7.42072 27.5616 7.27651 28.0907C7.2168 28.3104 7.16234 28.5312 7.11277 28.7524C6.98321 29.3266 6.9971 29.3469 7.52662 29.6188C7.66783 29.6909 7.78087 29.6823 7.90292 29.5786C8.08342 29.4243 8.26834 29.2757 8.45327 29.1271C8.51492 29.0776 8.57676 29.0279 8.63825 28.9781C9.09003 28.6127 9.58763 28.5309 10.1157 28.7783C10.6549 29.0315 10.8979 29.4806 10.902 30.0706C10.903 30.2137 10.9068 30.3566 10.9106 30.4995C10.9142 30.6322 10.9177 30.765 10.9189 30.8979C10.9208 31.1112 10.9989 31.2543 11.2265 31.2918C11.2856 31.302 11.3435 31.3202 11.4014 31.3384C11.4443 31.3519 11.4872 31.3654 11.5307 31.3756C11.696 31.415 11.8191 31.3748 11.9175 31.2156C12.079 30.9535 12.2604 30.7026 12.4422 30.4536C12.7787 29.994 13.2346 29.7852 13.7971 29.8783C14.3792 29.9741 14.7484 30.3293 14.92 30.896L14.9275 30.9206C15.0144 31.2073 15.1017 31.4954 15.2163 31.7707C15.2539 31.8601 15.3744 31.9415 15.4736 31.9712C15.567 31.9994 15.6693 31.9991 15.7711 31.9987C15.8088 31.9986 15.8465 31.9984 15.8837 31.9998C16.0489 32.0046 16.1492 31.9382 16.1999 31.765C16.299 31.4308 16.4091 31.0988 16.5356 30.7747C16.7351 30.2632 17.1144 29.9512 17.6585 29.8858C18.1944 29.822 18.6237 30.0379 18.9335 30.4822C19.0107 30.5926 19.0845 30.7054 19.1582 30.8182C19.2176 30.909 19.277 30.9997 19.338 31.0891C19.6554 31.5579 19.6587 31.5571 20.185 31.4217L20.2036 31.4169C20.3884 31.3692 20.4766 31.2791 20.4853 31.0838C20.4884 31.0157 20.4911 30.9475 20.4938 30.8793C20.5062 30.5653 20.5185 30.2507 20.5765 29.944C20.6227 29.7022 20.7335 29.4408 20.8935 29.256C21.3881 28.6818 22.1749 28.6439 22.7934 29.1306C23.0349 29.3214 23.2722 29.5193 23.4979 29.7292C23.6756 29.8937 23.8476 29.9091 24.0447 29.7788C24.1052 29.7394 24.169 29.7014 24.2348 29.671C24.4285 29.5809 24.4792 29.4355 24.4323 29.2312C24.3689 28.9551 24.3126 28.6769 24.2563 28.3987C24.2402 28.3189 24.224 28.2392 24.2077 28.1594C24.1311 27.7843 24.2317 27.4497 24.465 27.1564C24.8469 26.6734 25.5026 26.5258 26.1455 26.7838C26.2795 26.8374 26.4108 26.8979 26.542 26.9583C26.705 27.0334 26.8681 27.1085 27.036 27.1703C27.1411 27.2097 27.3236 27.2161 27.3912 27.1526C27.4249 27.121 27.4567 27.0916 27.4866 27.064C27.8226 26.7538 27.9109 26.6723 27.6229 26.1781C27.6174 26.1688 27.6124 26.1592 27.6073 26.1494L27.5997 26.1349C27.5685 26.0734 27.5377 26.0118 27.507 25.9503C27.4401 25.8162 27.3731 25.6821 27.3019 25.5502C27.051 25.0845 27.0134 24.6241 27.3326 24.1745C27.665 23.7066 28.1266 23.5249 28.6869 23.5898C29.0083 23.6274 29.3294 23.6747 29.649 23.7288C29.8717 23.7656 30.0283 23.7047 30.1083 23.482C30.1262 23.4328 30.152 23.3866 30.1779 23.3405C30.1879 23.3227 30.1979 23.3048 30.2075 23.2868C30.3062 23.0997 30.2856 22.9315 30.1391 22.7741C30.0274 22.6545 29.9174 22.5334 29.8074 22.4124C29.694 22.2876 29.5807 22.1629 29.4654 22.0396C28.6519 21.1664 29.2675 20.0244 30.2127 19.8599C30.2884 19.8469 30.364 19.8314 30.4396 19.8159C30.6192 19.7791 30.7987 19.7423 30.9792 19.7386C31.4036 19.7311 31.6143 19.5482 31.6751 19.122C31.7059 18.9038 31.6819 18.7701 31.4896 18.6559L31.4295 18.6203C31.1221 18.438 30.8134 18.2549 30.5274 18.043C29.7906 17.4974 29.8015 16.4714 30.5661 15.9644Z" fill="#DC6A3A"/>
<path d="M25.8454 12.0274C25.8615 11.8988 25.8208 11.7695 25.7336 11.6724C25.6463 11.5754 25.5209 11.5198 25.3892 11.5198H22.3739C22.1419 11.5198 21.9462 11.6899 21.9178 11.9165L21.2689 17.0812H17.3598L17.9946 12.0274C18.0108 11.8988 17.9701 11.7695 17.8828 11.6725C17.7956 11.5754 17.6702 11.5198 17.5385 11.5198H14.5232C14.2911 11.5198 14.0955 11.6899 14.067 11.9165L12.4123 25.0922C12.3962 25.2208 12.4369 25.35 12.5241 25.4471C12.6114 25.5442 12.7368 25.5998 12.8685 25.5998H15.8838C16.1157 25.5998 16.3113 25.4298 16.3399 25.2034L16.9977 19.9931H20.9068L20.2631 25.0919C20.2468 25.2205 20.2875 25.3498 20.3747 25.447C20.462 25.5441 20.5874 25.5998 20.7192 25.5998H23.7345C23.9665 25.5998 24.1622 25.4296 24.1907 25.2031L25.8454 12.0274Z" fill="#FEFEFE"/>
<path d="M14.9899 8.30271L14.9943 8.29728L14.999 8.29118L15.9103 7.10232C16.0333 6.94196 16.0294 6.72317 15.901 6.5668C15.6933 6.31404 15.443 6.08627 15.1538 5.88225C14.8645 5.67229 14.5464 5.49338 14.2011 5.3448C13.8537 5.19532 13.4822 5.07969 13.0879 4.99674C12.6938 4.91254 12.288 4.87085 11.8712 4.87085C11.0681 4.87085 10.3295 5.00082 9.66294 5.26961C9.01027 5.53281 8.44647 5.88965 7.97844 6.34276C7.51433 6.79206 7.15537 7.31081 6.90316 7.89613L6.90216 7.89846C6.65634 8.47828 6.53347 9.08487 6.53347 9.71501C6.53347 10.2478 6.6062 10.7245 6.76827 11.1322L6.77183 11.1408C6.93187 11.5193 7.1418 11.8521 7.40605 12.1322C7.40878 12.1351 7.41154 12.1379 7.41434 12.1408C7.67789 12.4058 7.97834 12.6243 8.31443 12.7949L8.32133 12.7983C8.6291 12.9483 8.94374 13.0796 9.26517 13.1923C9.57225 13.2999 9.87332 13.4016 10.1684 13.4975L10.1769 13.5001C10.4445 13.5816 10.6726 13.6742 10.8642 13.7758L10.8689 13.7783C11.049 13.8712 11.1777 13.977 11.2683 14.0909L11.2744 14.0984C11.3386 14.1757 11.3876 14.291 11.3876 14.4793C11.3876 14.9801 11.2533 15.2843 11.0588 15.4698C10.867 15.6528 10.5667 15.7746 10.0857 15.7746C9.74978 15.7746 9.49403 15.7257 9.30292 15.6463C9.06764 15.539 8.86622 15.4267 8.69623 15.3105C8.49925 15.1696 8.31631 15.0423 8.14757 14.9289C7.92152 14.7653 7.65979 14.6656 7.37039 14.6656C7.15583 14.6656 6.95216 14.7199 6.76408 14.8139L6.75575 14.8181C6.58205 14.9093 6.43035 15.0277 6.30474 15.1732C6.30109 15.1775 6.29752 15.1818 6.29403 15.1861L5.21533 16.5347C5.08493 16.6977 5.08865 16.9248 5.22435 17.0838C5.47104 17.373 5.76707 17.6311 6.10874 17.8592C6.44374 18.083 6.80424 18.2771 7.18949 18.4418L7.19828 18.4455C7.59024 18.6039 7.99538 18.7275 8.41332 18.8161L8.41482 18.8164C8.84292 18.9057 9.2699 18.9509 9.69517 18.9509C10.534 18.9509 11.3028 18.8184 11.9939 18.5442L11.996 18.5434C12.6793 18.2685 13.2682 17.897 13.7552 17.4258L13.7574 17.4236C14.2418 16.9485 14.613 16.3953 14.8707 15.7679C15.1286 15.1398 15.2561 14.4724 15.2561 13.7696C15.2561 13.2731 15.1788 12.8226 15.0076 12.4305C14.8511 12.0583 14.6343 11.7316 14.3545 11.457C14.0918 11.1933 13.7904 10.9737 13.4521 10.7987C13.1448 10.6366 12.8277 10.4931 12.501 10.3684C12.1923 10.2482 11.8894 10.1368 11.5923 10.0342C11.3206 9.94049 11.0793 9.84012 10.8669 9.73392C10.681 9.63251 10.5431 9.52434 10.4433 9.41366C10.3859 9.34495 10.3461 9.25085 10.3461 9.10284C10.3461 8.93094 10.3724 8.78263 10.4194 8.65384C10.4709 8.52932 10.5434 8.42412 10.6377 8.33412C10.7284 8.24754 10.8469 8.17334 11.0029 8.11616C11.1573 8.06177 11.351 8.02931 11.5922 8.02931C11.8569 8.02931 12.0647 8.06731 12.2265 8.1299C12.4343 8.21024 12.6092 8.29575 12.7542 8.38472L12.7605 8.38847C12.938 8.49359 13.0962 8.58938 13.2352 8.67592C13.4385 8.8024 13.668 8.88103 13.917 8.88103C14.1385 8.88103 14.3572 8.83182 14.5508 8.71227C14.5561 8.70903 14.5613 8.70569 14.5664 8.70225C14.7204 8.59852 14.8607 8.46022 14.9899 8.30271Z" fill="#FEFEFE"/>
<path fill-rule="evenodd" clip-rule="evenodd" d="M81.8198 24.5757L81.8243 24.573C82.6296 24.0822 83.3543 23.491 83.9969 22.8003C84.6464 22.1114 85.1967 21.3456 85.6473 20.5042C86.1072 19.6615 86.4573 18.7538 86.6991 17.7834C86.9507 16.8073 87.0755 15.7899 87.0755 14.7331C87.0755 13.5049 86.8821 12.3436 86.4905 11.2541C86.1074 10.1646 85.5476 9.20752 84.8085 8.39049C84.0735 7.56853 83.1742 6.92814 82.1204 6.46744C81.0598 5.99143 79.8785 5.76025 78.5882 5.76025C77.5482 5.76025 76.5549 5.89525 75.6107 6.16854C74.6752 6.4308 73.8031 6.80705 72.9969 7.29807C72.1908 7.78049 71.4618 8.36752 70.8108 9.05768C70.1611 9.74658 69.6064 10.5123 69.1472 11.3533L69.1447 11.358C68.694 12.1999 68.3446 13.1105 68.0947 14.0874L68.0937 14.0914C67.851 15.0667 67.7306 16.0833 67.7306 17.1395C67.7306 18.3749 67.9193 19.5398 68.3022 20.6292L68.3044 20.6354C68.6964 21.716 69.2606 22.6678 69.999 23.4835L70.0015 23.4863C70.7431 24.2963 71.6395 24.935 72.6826 25.4037L72.6887 25.4063C73.7569 25.8729 74.9455 26.0995 76.2434 26.0995C77.2745 26.0995 78.2626 25.9688 79.2054 25.7048L79.2108 25.7031C80.1444 25.4327 81.0148 25.0573 81.8198 24.5757ZM81.2915 12.9337L81.2886 12.9238C81.1301 12.3628 80.8984 11.9056 80.603 11.5384L80.5947 11.5278C80.3078 11.1553 79.9588 10.8747 79.5422 10.6794L79.5343 10.6757C79.1224 10.4758 78.6416 10.3682 78.0785 10.3682C77.3207 10.3682 76.6651 10.5273 76.0965 10.831L76.0909 10.8339C75.5102 11.1367 75.0101 11.5658 74.5891 12.1314C74.1753 12.6988 73.8449 13.3975 73.6074 14.2398C73.379 15.0711 73.2614 16.0062 73.2614 17.0499C73.2614 17.7687 73.3449 18.4034 73.5042 18.9593C73.6635 19.5156 73.889 19.9728 74.1719 20.343C74.4587 20.7074 74.8092 20.9901 75.2296 21.1949C75.6415 21.3872 76.1278 21.4914 76.7022 21.4914C77.4623 21.4914 78.12 21.3356 78.6898 21.0386L78.6927 21.0371C79.281 20.7342 79.7791 20.306 80.1898 19.7434L80.1931 19.7389C80.6156 19.1706 80.9498 18.4756 81.187 17.642C81.4231 16.812 81.5447 15.8782 81.5447 14.8355C81.5447 14.1191 81.4575 13.4871 81.2915 12.9337Z" fill="#311A10"/>
<path d="M49.6858 10.7371L49.6983 10.7205L50.9472 9.00525C51.1157 8.77393 51.1104 8.45822 50.9344 8.23268C50.6498 7.86799 50.3068 7.53939 49.9104 7.24502C49.5139 6.94213 49.0781 6.684 48.6049 6.46963C48.1288 6.254 47.6197 6.08713 47.0793 5.96752C46.5393 5.84596 45.9831 5.78588 45.4119 5.78588C44.3113 5.78588 43.2991 5.97338 42.3857 6.36111C41.4913 6.74088 40.7186 7.25572 40.0772 7.90939C39.4412 8.55768 38.9493 9.30603 38.6037 10.1505L38.6023 10.1538C38.2654 10.9904 38.097 11.8656 38.097 12.7746C38.097 13.5433 38.1967 14.2311 38.4188 14.8192L38.4237 14.8317C38.643 15.3777 38.9307 15.8578 39.2928 16.262L39.3042 16.2743C39.6654 16.6567 40.0771 16.972 40.5377 17.2181L40.5471 17.2231C40.9689 17.4394 41.4001 17.6288 41.8406 17.7914C42.2614 17.9467 42.674 18.0935 43.0784 18.2317L43.09 18.2356C43.4568 18.3531 43.7693 18.4868 44.032 18.6334L44.0384 18.6369C44.2852 18.7709 44.4616 18.9236 44.5857 19.0878L44.5941 19.0988C44.6821 19.2103 44.7492 19.3765 44.7492 19.6482C44.7492 20.3708 44.5651 20.8096 44.2987 21.0773C44.0358 21.3413 43.6242 21.517 42.9651 21.517C42.5047 21.517 42.1542 21.4465 41.8923 21.3319C41.5699 21.1771 41.2939 21.015 41.0609 20.8474C40.791 20.6441 40.5403 20.4605 40.309 20.2969C39.9992 20.0608 39.6406 19.917 39.244 19.917C38.9499 19.917 38.6708 19.9953 38.4131 20.131L38.4017 20.137C38.1636 20.2686 37.9557 20.4395 37.7836 20.6494C37.7786 20.6555 37.7737 20.6617 37.7689 20.668L36.2907 22.6136C36.1119 22.8488 36.117 23.1764 36.303 23.4059C36.6411 23.8231 37.0468 24.1953 37.515 24.5245C37.9741 24.8474 38.4681 25.1274 38.9961 25.3651L39.0081 25.3703C39.5453 25.5989 40.1005 25.7772 40.6732 25.905L40.6753 25.9055C41.2619 26.0344 41.8471 26.0995 42.4299 26.0995C43.5795 26.0995 44.633 25.9084 45.5801 25.5128L45.583 25.5116C46.5194 25.1151 47.3264 24.5791 47.9938 23.8992L47.9969 23.896C48.6606 23.2106 49.1694 22.4125 49.5224 21.5073C49.8759 20.6011 50.0506 19.6383 50.0506 18.6242C50.0506 17.908 49.9447 17.258 49.7101 16.6924C49.4956 16.1553 49.1985 15.6841 48.815 15.2879C48.4551 14.9075 48.0421 14.5906 47.5785 14.3381C47.1573 14.1042 46.7228 13.8972 46.275 13.7173C45.852 13.5438 45.4368 13.3831 45.0297 13.2352C44.6574 13.0999 44.3267 12.9552 44.0356 12.8019C43.7809 12.6556 43.5919 12.4995 43.4551 12.3399C43.3765 12.2408 43.3219 12.105 43.3219 11.8914C43.3219 11.6435 43.358 11.4295 43.4224 11.2437C43.4929 11.064 43.5922 10.9123 43.7215 10.7824C43.8459 10.6575 44.0083 10.5504 44.222 10.468C44.4336 10.3895 44.699 10.3427 45.0296 10.3427C45.3923 10.3427 45.6771 10.3974 45.8989 10.4878C46.1836 10.6037 46.4233 10.7271 46.6221 10.8554L46.6306 10.8608C46.7609 10.942 46.8837 11.0195 46.9988 11.093C47.0986 11.1567 47.1927 11.2175 47.2812 11.2755C47.5598 11.458 47.8742 11.5714 48.2155 11.5714C48.5191 11.5714 48.8188 11.5005 49.0841 11.328C49.0913 11.3233 49.0984 11.3185 49.1054 11.3135C49.3165 11.1638 49.5087 10.9643 49.6858 10.7371Z" fill="#311A10"/>
<path fill-rule="evenodd" clip-rule="evenodd" d="M56.4952 25.3335L57.2032 19.6099H58.6155C60.0039 19.6099 61.2367 19.4236 62.3004 19.0334C63.3494 18.6486 64.2387 18.1085 64.9506 17.4031C65.6569 16.7031 66.1797 15.8744 66.5172 14.9242C66.8588 13.9778 67.0263 12.9608 67.0263 11.8787C67.0263 11.067 66.8962 10.2999 66.6298 9.58268C66.3573 8.84018 65.9274 8.19713 65.3456 7.66025C64.7657 7.10877 64.0364 6.69627 63.1793 6.40885C62.313 6.10682 61.2964 5.96502 60.1448 5.96502H54.0023C53.6803 5.96502 53.4089 6.20635 53.3699 6.52744L51.1015 25.177C51.0794 25.3589 51.1359 25.5417 51.2569 25.6788C51.3778 25.8161 51.5515 25.8946 51.734 25.8946H55.8629C56.1844 25.8946 56.4556 25.6541 56.4952 25.3335ZM62.0436 13.6835C61.9331 14.1272 61.7505 14.5112 61.4956 14.8355C61.2492 15.1512 60.9221 15.3987 60.5143 15.5778C60.115 15.7485 59.618 15.8338 59.0233 15.8338H57.0226L57.7745 9.71549H59.737C60.1618 9.71549 60.5271 9.77947 60.8329 9.90744C61.1473 10.0269 61.4064 10.1976 61.6103 10.4195C61.8142 10.6413 61.9629 10.9059 62.0563 11.2131C62.1583 11.5203 62.2092 11.8573 62.2092 12.2242C62.2092 12.7533 62.154 13.2397 62.0436 13.6835Z" fill="#311A10"/>
<path fill-rule="evenodd" clip-rule="evenodd" d="M93.0316 25.3329L93.8165 18.9314H94.1833C94.3028 18.9314 94.3884 18.9417 94.4465 18.9546C94.4744 18.9608 94.4929 18.967 94.5042 18.9714C94.5166 18.9763 94.5203 18.9791 94.518 18.9776C94.5392 18.9918 94.5967 19.0414 94.6636 19.1867L96.669 24.6813L96.6725 24.6907L96.6785 24.7057C96.8318 25.0779 97.0857 25.377 97.4248 25.5914L97.4356 25.5981L97.4481 25.6056C97.805 25.8104 98.2139 25.8946 98.6436 25.8946H102.39C102.603 25.8946 102.802 25.7881 102.92 25.6104C103.038 25.4328 103.06 25.2077 102.979 25.0103L100.277 18.4438L100.272 18.4317C100.269 18.4239 100.265 18.4162 100.262 18.4086C100.101 18.0771 99.9005 17.7822 99.6552 17.5316C99.9774 17.351 100.281 17.1497 100.565 16.9274L100.57 16.9232C101.119 16.4839 101.588 15.9808 101.973 15.4142L101.976 15.4101C102.361 14.8346 102.652 14.208 102.848 13.5328C103.053 12.8478 103.155 12.1335 103.155 11.3923C103.155 10.6354 103.023 9.92213 102.752 9.25947C102.481 8.56697 102.046 7.97361 101.46 7.48299C100.869 6.9883 100.128 6.62072 99.2608 6.36346C98.3847 6.0926 97.3503 5.96502 96.1713 5.96502H90.5386C90.2166 5.96502 89.9452 6.20635 89.9061 6.52744L87.6378 25.177C87.6156 25.3589 87.6722 25.5417 87.7931 25.6788C87.9141 25.8161 88.0878 25.8946 88.2702 25.8946H92.3992C92.721 25.8946 92.9922 25.6537 93.0316 25.3329ZM97.1601 13.9906L97.1667 13.9827C97.365 13.7513 97.5085 13.4795 97.5952 13.1578L97.5986 13.1459C97.6996 12.7978 97.7515 12.4275 97.7515 12.0323C97.7515 11.7447 97.7097 11.5046 97.6369 11.3038L97.6349 11.2981C97.5676 11.1064 97.4659 10.9561 97.3293 10.8348L97.3218 10.828L97.3102 10.8171C97.1776 10.6892 96.9926 10.5755 96.7344 10.489L96.7297 10.4874C96.4895 10.4049 96.1802 10.3555 95.789 10.3555H94.874L94.3306 14.7714H95.1263C95.6577 14.7714 96.0712 14.6914 96.3869 14.5565C96.7252 14.4031 96.9766 14.2117 97.1601 13.9906ZM99.122 17.902L99.1207 17.9007C99.1073 17.8877 99.0938 17.8746 99.0803 17.8618C99.0943 17.8751 99.1082 17.8885 99.122 17.902Z" fill="#311A10"/>
<path d="M119.561 9.99103C119.519 10.3095 119.249 10.5474 118.93 10.5474H114.778L112.961 25.3331C112.921 25.6538 112.65 25.8946 112.328 25.8946H108.199C108.017 25.8946 107.843 25.8161 107.722 25.679C107.601 25.5418 107.545 25.3592 107.567 25.1773L109.34 10.5474H105.319C105.137 10.5474 104.963 10.4687 104.842 10.3313C104.721 10.1938 104.664 10.0107 104.687 9.82869L105.095 6.52627C105.134 6.20572 105.406 5.96502 105.727 5.96502H119.363C119.546 5.96502 119.721 6.04455 119.842 6.18307C119.963 6.32166 120.019 6.50596 119.995 6.68869L119.561 9.99103Z" fill="#311A10"/>
</svg>
